<?xml version="1.0" encoding="utf-8"?>
<!-- Generator: Adobe Illustrator 17.0.0, SVG Export Plug-In . SVG Version: 6.00 Build 0)  -->
<!DOCTYPE svg PUBLIC "-//W3C//DTD SVG 1.1//EN" "http://www.w3.org/Graphics/SVG/1.1/DTD/svg11.dtd">
<svg version="1.1" id="Layer_1" xmlns="http://www.w3.org/2000/svg" xmlns:xlink="http://www.w3.org/1999/xlink" x="0px" y="0px"
	 width="173.503px" height="167.935px" viewBox="0 0 173.503 167.935" enable-background="new 0 0 173.503 167.935"
	 xml:space="preserve">
<circle fill="#FFFFFF" cx="86.202" cy="79.628" r="29.489"/>
<path fill="#FFFFFF" d="M117.674,97.069c0,0,9.625,3.625,13.375,0c3.75-3.625,5.5-4.5,15-0.25c6.276,1.716,13.875-0.5,15.25-0.75
	c0,0-12.5-1.5-18.875-11c-4.5-5.375-12-1.75-13.125-1c-0.562,0.375-5.125,1.375-7.5-1.891
	C122.299,86.069,119.174,95.507,117.674,97.069z"/>
<path fill="#FFFFFF" d="M94.668,114.33c0,0,3.444,9.691,8.633,10.216c5.189,0.524,6.987,1.296,9.873,11.296
	c2.74,5.901,9.338,10.275,10.416,11.164c0,0-6.923-10.516-3.781-21.517c1.201-6.906-6.409-10.295-7.708-10.67
	c-0.649-0.188-4.358-3.027-3.397-6.949C106.055,110.763,96.829,114.468,94.668,114.33z"/>
<path fill="#FFFFFF" d="M97.116,46.246c0,0,2.097-10.069-2.063-13.215s-5.294-4.74-2.56-14.782
	C93.221,11.783,89.86,4.617,89.4,3.297c0,0,0.446,12.582-7.958,20.346c-4.617,5.275,0.121,12.126,1.036,13.122
	c0.457,0.498,2.149,4.852-0.712,7.702C85.534,43.372,95.341,45.004,97.116,46.246z"/>
<path fill="#FFFFFF" d="M118.873,64.124c0,0,8.618-5.613,7.915-10.781c-0.703-5.168-0.372-7.097,8.676-12.239
	c5.098-4.044,7.808-11.48,8.421-12.737c0,0-8.607,9.188-20.037,8.705c-6.996,0.446-8.512,8.637-8.574,9.988
	c-0.031,0.675-1.925,4.945-5.963,4.926C112.743,53.886,118.501,61.99,118.873,64.124z"/>
<path fill="#FFFFFF" d="M63.752,106.082c0,0-5.716,8.55-3.038,13.025c2.678,4.475,3.133,6.378-3.164,14.665
	c-3.097,5.723-2.665,13.626-2.734,15.022c0,0,4.3-11.833,15-15.883c6.257-3.161,4.43-11.289,3.955-12.555
	c-0.237-0.633-0.175-5.303,3.545-6.874C73.414,113.084,64.933,107.897,63.752,106.082z"/>
<path fill="#FFFFFF" d="M48.247,77.761c0,0-10.265,0.638-12.2,5.481s-3.173,6.359-13.58,6.375
	c-6.428,1.007-12.451,6.142-13.603,6.934c0,0,12.017-3.754,21.725,2.299c6.308,3.059,11.663-3.321,12.382-4.467
	c0.359-0.573,4.111-3.355,7.616-1.349C48.537,89.69,47.52,79.801,48.247,77.761z"/>
<path fill="#FFFFFF" d="M65.216,51.895c0,0-7.179-7.365-12.113-5.672s-6.889,1.743-13.69-6.135
	c-4.956-4.216-12.777-5.432-14.129-5.788c0,0,10.684,6.66,12.428,17.967c1.796,6.776,10.125,6.674,11.462,6.472
	c0.668-0.101,5.224,0.928,5.99,4.893C56.362,59.896,63.195,52.674,65.216,51.895z"/>
<polygon fill="#FFFFFF" points="63.455,26.573 65.956,12.096 62.429,25.122 59.768,14.294 60.883,23.555 52.715,8.099 53.81,3.265 
	51.517,6.542 46.805,0.672 49.246,7.793 45.25,7.977 49.921,9.638 58.613,24.805 51.383,18.91 59.11,26.95 46.217,22.964 
	59.787,28.592 70.518,47.877 62.822,45.06 76.182,54.029 75.748,37.943 74.012,45.953 "/>
<polygon fill="#FFFFFF" points="144.114,70.748 157.41,76.997 145.785,70.143 156.932,70.448 147.706,69.068 164.774,65.29 
	169.146,67.627 166.593,64.547 173.503,61.56 165.989,62.026 166.871,58.124 164.031,62.187 147.102,66.547 154.703,61.14 
	144.903,66.459 152.164,55.084 143.139,66.676 121.7,71.91 126.456,65.236 114.266,75.74 129.891,79.586 122.629,75.789 "/>
<polygon fill="#FFFFFF" points="114.314,29.473 127.409,22.814 114.862,27.783 121.946,19.171 115.193,25.607 122.688,9.814 
	127.216,7.798 123.218,7.922 125.102,0.634 120.858,6.851 118.319,3.76 119.783,8.496 112.832,24.536 113.23,15.216 111.412,26.218 
	106.89,13.502 110.501,27.743 101.472,47.881 99.123,40.029 99.932,56.1 112.56,46.126 105.104,49.529 "/>
<polygon fill="#FFFFFF" points="37.955,111.94 23.307,110.816 36.608,113.098 26.078,116.769 35.193,114.785 20.576,124.374 
	15.66,123.741 19.139,125.714 13.739,130.958 20.598,127.857 21.159,131.818 22.372,127.011 36.652,116.928 31.464,124.681 
	38.74,116.23 35.987,129.442 40.311,115.401 58.498,102.9 56.42,110.828 64.089,96.681 48.116,98.63 56.253,99.603 "/>
<polygon fill="#FFFFFF" points="30.44,63.138 21.234,51.688 28.673,62.948 18.79,57.783 26.475,63.071 9.48,58.977 6.577,54.959 
	7.52,58.846 0,58.498 6.956,61.377 4.451,64.496 8.786,62.091 25.911,65.602 16.708,67.126 27.849,66.646 16.332,73.682 
	29.529,67.225 51.091,71.929 43.888,75.839 59.451,71.749 47.098,61.437 51.958,68.036 "/>
<polygon fill="#FFFFFF" points="131.172,117.175 135.574,131.192 132.748,117.995 140.07,126.405 134.84,118.681 149.175,128.685 
	150.415,133.485 150.954,129.521 157.83,132.584 152.401,127.37 155.869,125.377 150.956,126.038 136.286,116.531 145.412,118.464 
	134.862,114.852 148.15,112.495 133.509,113.701 115.142,101.466 123.274,100.448 107.29,98.588 115.038,112.691 112.916,104.775 
	"/>
<polygon fill="#FFFFFF" points="84.208,137.193 74.904,148.563 84.387,138.961 81.372,149.696 84.961,141.086 84.461,158.56 
	81.128,162.229 84.738,160.505 85.949,167.935 87.33,160.535 90.899,162.342 87.651,158.596 87.553,141.116 90.943,149.806 
	88.175,139.004 97.435,148.821 88.395,137.241 88.549,115.172 93.861,121.413 86.648,107.029 79.106,121.244 84.561,115.127 "/>
<path fill="#00BFD6" d="M109.4,83.103c-0.756-6.718-9.909-15.871-21.917-19.902s-20.186-1.643-21.245-1.26
	c-0.696,0.252-4.703,3.443-1.176,3.863c3.527,0.42,4.115-0.504,2.603-0.84s-2.015-0.84,0.252-1.092
	c13.436-1.763,35.017,7.474,37.117,18.474c1.801,9.439-10.494,12.448-19.962,10.3c0.168-2.865,0.354-6.797,0.416-10.522
	c4.174,0.149,7.987,0.678,9.386,1.397c2.939,1.512-0.588,2.435-1.176,2.687c-0.588,0.252,1.743,1.935,3.191,1.176
	c6.382-6.466-4.787-8.565-9.033-8.985c-0.701-0.069-1.498-0.101-2.357-0.093c-0.022-1.616-0.083-3.085-0.199-4.273
	c-1.596-6.214-2.411-1.941-3.023-0.84c-0.258,0.465-0.509,2.607-0.724,5.401c-3.545,0.473-7.335,1.551-9.857,3.417
	c-4.199,3.107,4.451,9.657,8.985,11.924c0.068,0.032,0.135,0.061,0.203,0.093c-0.002,0.835,0.014,1.424,0.049,1.671
	c0.756,3.275,3.695,2.771,3.863,0.987c0.02-0.211,0.051-0.602,0.089-1.135c7.887,2.332,14.537,0.49,17.042-0.44
	C104.866,94.019,110.156,89.821,109.4,83.103z M73.123,83.271c1.913-0.71,4.959-1.067,8.194-1.162
	c-0.184,3.145-0.323,6.541-0.39,9.168c-0.082-0.037-0.165-0.074-0.247-0.113C71.276,86.714,70.583,84.199,73.123,83.271z"/>
</svg>
